<?xml version="1.0" standalone="no"?>
<!DOCTYPE svg PUBLIC "-//W3C//DTD SVG 20010904//EN"
 "http://www.w3.org/TR/2001/REC-SVG-20010904/DTD/svg10.dtd">
<svg version="1.0" xmlns="http://www.w3.org/2000/svg" viewBox="0 0 256.000000 256.000000" style="height:50vmin;width:50vmin"
 preserveAspectRatio="xMidYMid meet">
<metadata>
Created by potrace 1.16, written by Peter Selinger 2001-2019
</metadata>
<g transform="translate(0.000000,256.000000) scale(0.100000,-0.100000)"
fill="#000000" stroke="none" style="height:50vmin;width:50vmin">
<path d="M328 2541 c-145 -47 -269 -174 -312 -320 -14 -48 -16 -161 -16 -941
0 -780 2 -893 16 -941 43 -148 168 -274 315 -320 58 -18 105 -19 949 -19 844
0 891 1 949 19 147 46 272 172 315 320 14 48 16 161 16 942 0 843 -1 890 -19
948 -46 147 -172 272 -320 315 -48 14 -161 16 -945 15 -836 0 -895 -1 -948
-18z m1863 -209 c59 -29 112 -82 141 -141 l23 -46 0 -865 0 -865 -23 -46 c-29
-59 -82 -112 -141 -141 l-46 -23 -865 0 -865 0 -46 23 c-59 29 -112 82 -141
141 l-23 46 -3 840 c-2 581 1 854 8 885 22 91 103 177 193 206 34 10 215 12
892 11 l850 -2 46 -23z"/>
<path d="M1207 1880 c-155 -40 -271 -173 -323 -375 -26 -100 -26 -368 -1 -478
40 -169 132 -298 255 -355 50 -24 69 -27 162 -27 97 0 110 2 173 32 158 75
238 219 268 478 28 249 -31 493 -151 619 -71 75 -147 108 -259 112 -47 2 -103
-1 -124 -6z m159 -237 c31 -20 68 -91 82 -158 19 -88 24 -237 13 -335 -15
-136 -36 -197 -81 -242 -96 -97 -198 -10 -231 195 -17 114 -7 323 21 412 39
123 122 177 196 128z"/>
</g>
</svg>
