<?xml version="1.0" standalone="no"?>
<!DOCTYPE svg PUBLIC "-//W3C//DTD SVG 20010904//EN"
 "http://www.w3.org/TR/2001/REC-SVG-20010904/DTD/svg10.dtd">
<svg version="1.0" xmlns="http://www.w3.org/2000/svg"
 width="256.000000pt" height="256.000000pt" viewBox="0 0 256.000000 256.000000"
 preserveAspectRatio="xMidYMid meet">
<metadata>
Created by potrace 1.16, written by Peter Selinger 2001-2019
</metadata>
<g transform="translate(0.000000,256.000000) scale(0.100000,-0.100000)"
fill="#000000" stroke="none">
<path d="M328 2541 c-145 -47 -269 -174 -312 -320 -14 -48 -16 -161 -16 -941
0 -780 2 -893 16 -941 43 -148 168 -274 315 -320 58 -18 105 -19 949 -19 844
0 891 1 949 19 147 46 272 172 315 320 14 48 16 161 16 942 0 843 -1 890 -19
948 -46 147 -172 272 -320 315 -48 14 -161 16 -945 15 -836 0 -895 -1 -948
-18z m1863 -209 c59 -29 112 -82 141 -141 l23 -46 0 -865 0 -865 -23 -46 c-29
-59 -82 -112 -141 -141 l-46 -23 -865 0 -865 0 -46 23 c-59 29 -112 82 -141
141 l-23 46 -3 840 c-2 581 1 854 8 885 22 91 103 177 193 206 34 10 215 12
892 11 l850 -2 46 -23z"/>
<path d="M1082 1800 c-78 -38 -145 -76 -148 -84 -6 -17 22 -159 37 -188 14
-26 30 -23 119 22 44 22 82 40 85 40 2 0 6 -208 7 -462 l3 -463 130 0 130 0 0
600 0 600 -110 2 -110 2 -143 -69z"/>
</g>
</svg>
