<?xml version="1.0" standalone="no"?>
<!DOCTYPE svg PUBLIC "-//W3C//DTD SVG 20010904//EN"
 "http://www.w3.org/TR/2001/REC-SVG-20010904/DTD/svg10.dtd">
<svg version="1.0" xmlns="http://www.w3.org/2000/svg"
 width="256.000000pt" height="256.000000pt" viewBox="0 0 256.000000 256.000000"
 preserveAspectRatio="xMidYMid meet">
<metadata>
Created by potrace 1.16, written by Peter Selinger 2001-2019
</metadata>
<g transform="translate(0.000000,256.000000) scale(0.100000,-0.100000)"
fill="#000000" stroke="none">
<path d="M328 2541 c-145 -47 -269 -174 -312 -320 -14 -48 -16 -161 -16 -941
0 -780 2 -893 16 -941 43 -148 168 -274 315 -320 58 -18 105 -19 949 -19 844
0 891 1 949 19 147 46 272 172 315 320 14 48 16 161 16 942 0 843 -1 890 -19
948 -46 147 -172 272 -320 315 -48 14 -161 16 -945 15 -836 0 -895 -1 -948
-18z m1863 -209 c59 -29 112 -82 141 -141 l23 -46 0 -865 0 -865 -23 -46 c-29
-59 -82 -112 -141 -141 l-46 -23 -865 0 -865 0 -46 23 c-59 29 -112 82 -141
141 l-23 46 -3 840 c-2 581 1 854 8 885 22 91 103 177 193 206 34 10 215 12
892 11 l850 -2 46 -23z"/>
<path d="M1145 1876 c-119 -27 -245 -95 -245 -132 0 -37 65 -179 84 -182 9 -2
38 10 64 27 129 82 274 82 335 -1 27 -36 33 -115 14 -172 -35 -102 -168 -256
-406 -471 l-111 -100 3 -90 2 -90 410 0 410 0 0 115 0 115 -202 5 -202 5 106
105 c122 120 191 208 233 294 110 224 28 479 -179 557 -72 27 -230 35 -316 15z"/>
</g>
</svg>
