<?xml version="1.0" standalone="no"?>
<!DOCTYPE svg PUBLIC "-//W3C//DTD SVG 20010904//EN"
 "http://www.w3.org/TR/2001/REC-SVG-20010904/DTD/svg10.dtd">
<svg version="1.0" xmlns="http://www.w3.org/2000/svg"
 width="256.000000pt" height="256.000000pt" viewBox="0 0 256.000000 256.000000"
 preserveAspectRatio="xMidYMid meet">
<metadata>
Created by potrace 1.16, written by Peter Selinger 2001-2019
</metadata>
<g transform="translate(0.000000,256.000000) scale(0.100000,-0.100000)"
fill="#000000" stroke="none">
<path d="M328 2541 c-145 -47 -269 -174 -312 -320 -14 -48 -16 -161 -16 -941
0 -780 2 -893 16 -941 43 -148 168 -274 315 -320 58 -18 105 -19 949 -19 844
0 891 1 949 19 147 46 272 172 315 320 14 48 16 161 16 942 0 843 -1 890 -19
948 -46 147 -172 272 -320 315 -48 14 -161 16 -945 15 -836 0 -895 -1 -948
-18z m1863 -209 c59 -29 112 -82 141 -141 l23 -46 0 -865 0 -865 -23 -46 c-29
-59 -82 -112 -141 -141 l-46 -23 -865 0 -865 0 -46 23 c-59 29 -112 82 -141
141 l-23 46 -3 840 c-2 581 1 854 8 885 22 91 103 177 193 206 34 10 215 12
892 11 l850 -2 46 -23z"/>
<path d="M1155 1874 c-38 -8 -100 -29 -137 -46 -80 -37 -82 -42 -42 -160 30
-90 33 -91 118 -52 167 76 316 42 316 -73 0 -81 -69 -123 -220 -132 l-95 -6
-3 -102 c-3 -119 -14 -110 133 -115 73 -3 99 -9 135 -28 85 -48 111 -124 68
-201 -48 -86 -190 -109 -338 -55 -132 49 -124 51 -154 -47 -32 -104 -32 -122
-4 -142 48 -33 180 -66 288 -72 234 -12 405 68 482 224 28 58 32 75 32 147 0
60 -6 93 -21 128 -26 58 -92 131 -139 153 l-36 17 39 28 c77 57 114 132 116
235 1 130 -74 238 -201 286 -76 28 -238 35 -337 13z"/>
</g>
</svg>
