<?xml version="1.0" standalone="no"?>
<!DOCTYPE svg PUBLIC "-//W3C//DTD SVG 20010904//EN"
 "http://www.w3.org/TR/2001/REC-SVG-20010904/DTD/svg10.dtd">
<svg version="1.0" xmlns="http://www.w3.org/2000/svg"
 width="256.000000pt" height="256.000000pt" viewBox="0 0 256.000000 256.000000"
 preserveAspectRatio="xMidYMid meet">
<metadata>
Created by potrace 1.16, written by Peter Selinger 2001-2019
</metadata>
<g transform="translate(0.000000,256.000000) scale(0.100000,-0.100000)"
fill="#000000" stroke="none">
<path d="M328 2541 c-145 -47 -269 -174 -312 -320 -14 -48 -16 -161 -16 -941
0 -780 2 -893 16 -941 43 -148 168 -274 315 -320 58 -18 105 -19 949 -19 844
0 891 1 949 19 147 46 272 172 315 320 14 48 16 161 16 942 0 843 -1 890 -19
948 -46 147 -172 272 -320 315 -48 14 -161 16 -945 15 -836 0 -895 -1 -948
-18z m1863 -209 c59 -29 112 -82 141 -141 l23 -46 0 -865 0 -865 -23 -46 c-29
-59 -82 -112 -141 -141 l-46 -23 -865 0 -865 0 -46 23 c-59 29 -112 82 -141
141 l-23 46 -3 840 c-2 581 1 854 8 885 22 91 103 177 193 206 34 10 215 12
892 11 l850 -2 46 -23z"/>
<path d="M1025 1848 c-10 -46 -76 -581 -73 -596 3 -14 24 -17 158 -17 152 0
156 -1 215 -30 32 -16 68 -42 78 -56 21 -29 33 -103 23 -143 -9 -36 -53 -84
-100 -109 -61 -32 -184 -29 -290 7 -44 15 -85 25 -91 22 -14 -5 -55 -147 -55
-188 0 -17 8 -29 28 -38 111 -51 306 -73 429 -47 248 53 390 240 362 476 -23
199 -190 329 -427 332 l-74 1 6 42 c4 22 10 60 13 83 l6 43 221 2 221 3 0 115
0 115 -322 3 -323 2 -5 -22z"/>
</g>
</svg>
