<?xml version="1.0" standalone="no"?>
<!DOCTYPE svg PUBLIC "-//W3C//DTD SVG 20010904//EN"
 "http://www.w3.org/TR/2001/REC-SVG-20010904/DTD/svg10.dtd">
<svg version="1.0" xmlns="http://www.w3.org/2000/svg"
 width="256.000000pt" height="256.000000pt" viewBox="0 0 256.000000 256.000000"
 preserveAspectRatio="xMidYMid meet">
<metadata>
Created by potrace 1.16, written by Peter Selinger 2001-2019
</metadata>
<g transform="translate(0.000000,256.000000) scale(0.100000,-0.100000)"
fill="#000000" stroke="none">
<path d="M328 2541 c-145 -47 -269 -174 -312 -320 -14 -48 -16 -161 -16 -941
0 -780 2 -893 16 -941 43 -148 168 -274 315 -320 58 -18 105 -19 949 -19 844
0 891 1 949 19 147 46 272 172 315 320 14 48 16 161 16 942 0 843 -1 890 -19
948 -46 147 -172 272 -320 315 -48 14 -161 16 -945 15 -836 0 -895 -1 -948
-18z m1863 -209 c59 -29 112 -82 141 -141 l23 -46 0 -865 0 -865 -23 -46 c-29
-59 -82 -112 -141 -141 l-46 -23 -865 0 -865 0 -46 23 c-59 29 -112 82 -141
141 l-23 46 -3 840 c-2 581 1 854 8 885 22 91 103 177 193 206 34 10 215 12
892 11 l850 -2 46 -23z"/>
<path d="M1220 1880 c-76 -16 -165 -66 -214 -121 -55 -61 -80 -131 -79 -221 0
-84 35 -161 96 -214 l42 -36 -25 -16 c-57 -39 -91 -78 -122 -139 -61 -125 -38
-273 61 -372 102 -102 292 -145 472 -107 186 40 305 163 317 326 10 146 -43
244 -176 326 -2 2 14 19 37 39 22 20 52 61 66 90 85 172 0 364 -190 430 -58
20 -218 29 -285 15z m181 -223 c46 -31 61 -62 56 -121 -4 -43 -10 -55 -45 -88
-48 -45 -66 -46 -132 -13 -57 29 -80 59 -86 112 -13 101 118 170 207 110z
m-23 -508 c47 -23 68 -41 87 -73 94 -160 -113 -300 -252 -172 -31 28 -37 40
-41 88 -6 74 17 122 77 159 25 16 50 29 56 29 7 0 40 -14 73 -31z"/>
</g>
</svg>
