<?xml version="1.0" standalone="no"?>
<!DOCTYPE svg PUBLIC "-//W3C//DTD SVG 20010904//EN"
 "http://www.w3.org/TR/2001/REC-SVG-20010904/DTD/svg10.dtd">
<svg version="1.0" xmlns="http://www.w3.org/2000/svg"
 width="256.000000pt" height="256.000000pt" viewBox="0 0 256.000000 256.000000"
 preserveAspectRatio="xMidYMid meet">
<metadata>
Created by potrace 1.16, written by Peter Selinger 2001-2019
</metadata>
<g transform="translate(0.000000,256.000000) scale(0.100000,-0.100000)"
fill="#000000" stroke="none">
<path d="M328 2541 c-145 -47 -269 -174 -312 -320 -14 -48 -16 -161 -16 -941
0 -780 2 -893 16 -941 43 -148 168 -274 315 -320 58 -18 105 -19 949 -19 844
0 891 1 949 19 147 46 272 172 315 320 14 48 16 161 16 942 0 843 -1 890 -19
948 -46 147 -172 272 -320 315 -48 14 -161 16 -945 15 -836 0 -895 -1 -948
-18z m1863 -209 c59 -29 112 -82 141 -141 l23 -46 0 -865 0 -865 -23 -46 c-29
-59 -82 -112 -141 -141 l-46 -23 -865 0 -865 0 -46 23 c-59 29 -112 82 -141
141 l-23 46 -3 840 c-2 581 1 854 8 885 22 91 103 177 193 206 34 10 215 12
892 11 l850 -2 46 -23z"/>
<path d="M1155 1876 c-268 -67 -408 -364 -289 -613 33 -68 118 -145 192 -174
76 -29 203 -30 284 -2 l57 19 -16 -29 c-23 -45 -92 -115 -140 -144 -55 -32
-125 -50 -227 -59 -44 -4 -84 -12 -88 -18 -4 -6 -8 -52 -8 -102 0 -119 0 -119
132 -110 213 14 339 65 459 185 133 134 190 289 193 521 2 192 -34 310 -123
411 -93 106 -270 154 -426 115z m158 -220 c66 -28 101 -93 113 -210 6 -60 5
-64 -25 -99 -86 -97 -232 -83 -282 27 -32 71 -19 186 28 238 48 55 105 70 166
44z"/>
</g>
</svg>
